<svg width="64" height="64" viewBox="0 0 64 64" xmlns="http://www.w3.org/2000/svg">
  <defs>
    <linearGradient id="leafGradient" x1="0%" y1="0%" x2="100%" y2="100%">
      <stop offset="0%" style="stop-color:#84cc16;stop-opacity:1" />
      <stop offset="50%" style="stop-color:#65a30d;stop-opacity:1" />
      <stop offset="100%" style="stop-color:#4d7c0f;stop-opacity:1" />
    </linearGradient>
    <linearGradient id="stemGradient" x1="0%" y1="0%" x2="100%" y2="100%">
      <stop offset="0%" style="stop-color:#65a30d;stop-opacity:1" />
      <stop offset="100%" style="stop-color:#4d7c0f;stop-opacity:1" />
    </linearGradient>
  </defs>
  
  <!-- Main leaf shape -->
  <path d="M32 8 C20 8, 12 16, 12 28 C12 40, 20 48, 32 56 C44 48, 52 40, 52 28 C52 16, 44 8, 32 8 Z" 
        fill="url(#leafGradient)" 
        stroke="#4d7c0f" 
        stroke-width="1"/>
  
  <!-- Leaf stem/vein -->
  <path d="M32 12 L32 52" 
        stroke="url(#stemGradient)" 
        stroke-width="2" 
        opacity="0.8"/>
  
  <!-- Side veins -->
  <path d="M32 20 C28 24, 24 28, 20 32" 
        stroke="#4d7c0f" 
        stroke-width="1" 
        opacity="0.6" 
        fill="none"/>
  <path d="M32 20 C36 24, 40 28, 44 32" 
        stroke="#4d7c0f" 
        stroke-width="1" 
        opacity="0.6" 
        fill="none"/>
  <path d="M32 32 C28 36, 24 40, 20 44" 
        stroke="#4d7c0f" 
        stroke-width="1" 
        opacity="0.4" 
        fill="none"/>
  <path d="M32 32 C36 36, 40 40, 44 44" 
        stroke="#4d7c0f" 
        stroke-width="1" 
        opacity="0.4" 
        fill="none"/>
  
  <!-- Highlight for 3D effect -->
  <ellipse cx="28" cy="24" rx="8" ry="12" 
           fill="#a3e635" 
           opacity="0.3" 
           transform="rotate(-15 28 24)"/>
</svg>